<mxfile host="app.diagrams.net" agent="Mozilla/5.0 (Windows NT 10.0; Win64; x64) AppleWebKit/537.36 (KHTML, like Gecko) Chrome/122.0.0.0 Safari/537.36" version="27.1.4">
  <diagram name="第 1 页" id="64g_JxvsSnHqErx53Wv3">
    <mxGraphModel dx="719" dy="394" grid="1" gridSize="10" guides="1" tooltips="1" connect="1" arrows="1" fold="1" page="1" pageScale="1" pageWidth="827" pageHeight="1169" math="0" shadow="0">
      <root>
        <mxCell id="0" />
        <mxCell id="1" parent="0" />
        <mxCell id="SAS33Rb4r9g4yxow2wDs-1" value="高校学生社团活动管理系统" style="rounded=0;whiteSpace=wrap;html=1;" vertex="1" parent="1">
          <mxGeometry x="310" y="100" width="180" height="60" as="geometry" />
        </mxCell>
        <mxCell id="SAS33Rb4r9g4yxow2wDs-2" value="用&lt;div&gt;户&lt;/div&gt;&lt;div&gt;登&lt;/div&gt;&lt;div&gt;录&lt;/div&gt;" style="rounded=0;whiteSpace=wrap;html=1;" vertex="1" parent="1">
          <mxGeometry x="210" y="200" width="30" height="170" as="geometry" />
        </mxCell>
        <mxCell id="SAS33Rb4r9g4yxow2wDs-4" value="用&lt;div&gt;户&lt;/div&gt;&lt;div&gt;信&lt;/div&gt;&lt;div&gt;息&lt;/div&gt;&lt;div&gt;管&lt;/div&gt;&lt;div&gt;理&lt;/div&gt;" style="rounded=0;whiteSpace=wrap;html=1;" vertex="1" parent="1">
          <mxGeometry x="280" y="200" width="30" height="170" as="geometry" />
        </mxCell>
        <mxCell id="SAS33Rb4r9g4yxow2wDs-5" value="&lt;span style=&quot;background-color: transparent;&quot;&gt;社&lt;/span&gt;&lt;div&gt;&lt;span style=&quot;background-color: transparent;&quot;&gt;团&lt;/span&gt;&lt;/div&gt;&lt;div&gt;&lt;span style=&quot;background-color: transparent;&quot;&gt;信&lt;/span&gt;&lt;div&gt;息&lt;/div&gt;&lt;div&gt;管&lt;/div&gt;&lt;div&gt;理&lt;/div&gt;&lt;/div&gt;" style="rounded=0;whiteSpace=wrap;html=1;" vertex="1" parent="1">
          <mxGeometry x="350" y="200" width="30" height="170" as="geometry" />
        </mxCell>
        <mxCell id="SAS33Rb4r9g4yxow2wDs-6" value="&lt;span style=&quot;background-color: transparent;&quot;&gt;社&lt;/span&gt;&lt;div&gt;&lt;span style=&quot;background-color: transparent;&quot;&gt;团&lt;/span&gt;&lt;/div&gt;&lt;div&gt;活&lt;/div&gt;&lt;div&gt;动&lt;br&gt;&lt;div&gt;管&lt;/div&gt;&lt;div&gt;理&lt;/div&gt;&lt;/div&gt;" style="rounded=0;whiteSpace=wrap;html=1;" vertex="1" parent="1">
          <mxGeometry x="420" y="200" width="30" height="170" as="geometry" />
        </mxCell>
        <mxCell id="SAS33Rb4r9g4yxow2wDs-8" value="&lt;span style=&quot;background-color: transparent;&quot;&gt;公&lt;/span&gt;&lt;div&gt;&lt;span style=&quot;background-color: transparent;&quot;&gt;告&lt;/span&gt;&lt;/div&gt;&lt;div&gt;&lt;span style=&quot;background-color: transparent;&quot;&gt;信&lt;/span&gt;&lt;div&gt;&lt;div&gt;息&lt;/div&gt;&lt;div&gt;管&lt;/div&gt;&lt;div&gt;理&lt;/div&gt;&lt;/div&gt;&lt;/div&gt;" style="rounded=0;whiteSpace=wrap;html=1;" vertex="1" parent="1">
          <mxGeometry x="490" y="200" width="30" height="170" as="geometry" />
        </mxCell>
      </root>
    </mxGraphModel>
  </diagram>
</mxfile>
